
<svg width="416" height="93" viewBox="0 0 416 93" fill="none" xmlns="http://www.w3.org/2000/svg">
<path d="M72.046 46.176C72.046 41.8773 72.976 38.054 74.836 34.706C76.696 31.3167 79.2793 28.692 82.586 26.832C85.934 24.9307 89.716 23.98 93.932 23.98C99.0987 23.98 103.521 25.344 107.2 28.072C110.879 30.8 113.338 34.52 114.578 39.232H102.922C102.054 37.4133 100.814 36.0287 99.202 35.078C97.6313 34.1273 95.8333 33.652 93.808 33.652C90.5427 33.652 87.8973 34.7887 85.872 37.062C83.8467 39.3353 82.834 42.3733 82.834 46.176C82.834 49.9787 83.8467 53.0167 85.872 55.29C87.8973 57.5633 90.5427 58.7 93.808 58.7C95.8333 58.7 97.6313 58.2247 99.202 57.274C100.814 56.3233 102.054 54.9387 102.922 53.12H114.578C113.338 57.832 110.879 61.552 107.2 64.28C103.521 66.9667 99.0987 68.31 93.932 68.31C89.716 68.31 85.934 67.38 82.586 65.52C79.2793 63.6187 76.696 60.994 74.836 57.646C72.976 54.298 72.046 50.4747 72.046 46.176ZM138.617 33.032C142.585 33.032 145.767 34.3547 148.165 37C150.562 39.604 151.761 43.2 151.761 47.788V68H141.221V49.214C141.221 46.8993 140.621 45.1013 139.423 43.82C138.224 42.5387 136.612 41.898 134.587 41.898C132.561 41.898 130.949 42.5387 129.751 43.82C128.552 45.1013 127.953 46.8993 127.953 49.214V68H117.351V22.12H127.953V38.054C129.027 36.5247 130.495 35.3053 132.355 34.396C134.215 33.4867 136.302 33.032 138.617 33.032ZM153.3 50.64C153.3 47.0853 153.961 43.9647 155.284 41.278C156.648 38.5913 158.487 36.5247 160.802 35.078C163.117 33.6313 165.7 32.908 168.552 32.908C170.991 32.908 173.119 33.404 174.938 34.396C176.798 35.388 178.224 36.69 179.216 38.302V33.404H189.818V68H179.216V63.102C178.183 64.714 176.736 66.016 174.876 67.008C173.057 68 170.929 68.496 168.49 68.496C165.679 68.496 163.117 67.7727 160.802 66.326C158.487 64.838 156.648 62.7507 155.284 60.064C153.961 57.336 153.3 54.1947 153.3 50.64ZM179.216 50.702C179.216 48.0567 178.472 45.9693 176.984 44.44C175.537 42.9107 173.76 42.146 171.652 42.146C169.544 42.146 167.746 42.9107 166.258 44.44C164.811 45.928 164.088 47.9947 164.088 50.64C164.088 53.2853 164.811 55.3933 166.258 56.964C167.746 58.4933 169.544 59.258 171.652 59.258C173.76 59.258 175.537 58.4933 176.984 56.964C178.472 55.4347 179.216 53.3473 179.216 50.702ZM204.37 22.12V68H193.768V22.12H204.37ZM229.475 68L218.935 53.492V68H208.333V22.12H218.935V47.478L229.413 33.404H242.495L228.111 50.764L242.619 68H229.475ZM269.289 45.68C271.811 46.2173 273.836 47.478 275.365 49.462C276.895 51.4047 277.659 53.6367 277.659 56.158C277.659 59.7953 276.378 62.6887 273.815 64.838C271.294 66.946 267.76 68 263.213 68H242.939V24.476H262.531C266.954 24.476 270.405 25.4887 272.885 27.514C275.407 29.5393 276.667 32.288 276.667 35.76C276.667 38.3227 275.985 40.4513 274.621 42.146C273.299 43.8407 271.521 45.0187 269.289 45.68ZM253.541 42.084H260.485C262.221 42.084 263.544 41.712 264.453 40.968C265.404 40.1827 265.879 39.046 265.879 37.558C265.879 36.07 265.404 34.9333 264.453 34.148C263.544 33.3627 262.221 32.97 260.485 32.97H253.541V42.084ZM261.353 59.444C263.131 59.444 264.495 59.0513 265.445 58.266C266.437 57.4393 266.933 56.2613 266.933 54.732C266.933 53.2027 266.417 52.004 265.383 51.136C264.391 50.268 263.007 49.834 261.229 49.834H253.541V59.444H261.353ZM295.836 68.496C292.447 68.496 289.388 67.7727 286.66 66.326C283.974 64.8793 281.845 62.8127 280.274 60.126C278.745 57.4393 277.98 54.298 277.98 50.702C277.98 47.1473 278.766 44.0267 280.336 41.34C281.907 38.612 284.056 36.5247 286.784 35.078C289.512 33.6313 292.571 32.908 295.96 32.908C299.35 32.908 302.408 33.6313 305.136 35.078C307.864 36.5247 310.014 38.612 311.584 41.34C313.155 44.0267 313.94 47.1473 313.94 50.702C313.94 54.2567 313.134 57.398 311.522 60.126C309.952 62.8127 307.782 64.8793 305.012 66.326C302.284 67.7727 299.226 68.496 295.836 68.496ZM295.836 59.32C297.862 59.32 299.577 58.576 300.982 57.088C302.429 55.6 303.152 53.4713 303.152 50.702C303.152 47.9327 302.45 45.804 301.044 44.316C299.68 42.828 297.986 42.084 295.96 42.084C293.894 42.084 292.178 42.828 290.814 44.316C289.45 45.7627 288.768 47.8913 288.768 50.702C288.768 53.4713 289.43 55.6 290.752 57.088C292.116 58.576 293.811 59.32 295.836 59.32ZM313.737 50.64C313.737 47.0853 314.398 43.9647 315.721 41.278C317.085 38.5913 318.924 36.5247 321.239 35.078C323.554 33.6313 326.137 32.908 328.989 32.908C331.428 32.908 333.556 33.404 335.375 34.396C337.235 35.388 338.661 36.69 339.653 38.302V33.404H350.255V68H339.653V63.102C338.62 64.714 337.173 66.016 335.313 67.008C333.494 68 331.366 68.496 328.927 68.496C326.116 68.496 323.554 67.7727 321.239 66.326C318.924 64.838 317.085 62.7507 315.721 60.064C314.398 57.336 313.737 54.1947 313.737 50.64ZM339.653 50.702C339.653 48.0567 338.909 45.9693 337.421 44.44C335.974 42.9107 334.197 42.146 332.089 42.146C329.981 42.146 328.183 42.9107 326.695 44.44C325.248 45.928 324.525 47.9947 324.525 50.64C324.525 53.2853 325.248 55.3933 326.695 56.964C328.183 58.4933 329.981 59.258 332.089 59.258C334.197 59.258 335.974 58.4933 337.421 56.964C338.909 55.4347 339.653 53.3473 339.653 50.702ZM364.807 39.17C366.047 37.2687 367.597 35.7807 369.457 34.706C371.317 33.59 373.384 33.032 375.657 33.032V44.254H372.743C370.098 44.254 368.114 44.8327 366.791 45.99C365.468 47.106 364.807 49.09 364.807 51.942V68H354.205V33.404H364.807V39.17ZM374.897 50.64C374.897 47.0853 375.558 43.9647 376.881 41.278C378.245 38.5913 380.084 36.5247 382.399 35.078C384.713 33.6313 387.297 32.908 390.149 32.908C392.422 32.908 394.489 33.3833 396.349 34.334C398.25 35.2847 399.738 36.566 400.813 38.178V22.12H411.415V68H400.813V63.04C399.821 64.6933 398.395 66.016 396.535 67.008C394.716 68 392.587 68.496 390.149 68.496C387.297 68.496 384.713 67.7727 382.399 66.326C380.084 64.838 378.245 62.7507 376.881 60.064C375.558 57.336 374.897 54.1947 374.897 50.64ZM400.813 50.702C400.813 48.0567 400.069 45.9693 398.581 44.44C397.134 42.9107 395.357 42.146 393.249 42.146C391.141 42.146 389.343 42.9107 387.855 44.44C386.408 45.928 385.685 47.9947 385.685 50.64C385.685 53.2853 386.408 55.3933 387.855 56.964C389.343 58.4933 391.141 59.258 393.249 59.258C395.357 59.258 397.134 58.4933 398.581 56.964C400.069 55.4347 400.813 53.3473 400.813 50.702Z" fill="#5A479B"/>
<rect x="19" y="22" width="36" height="30" fill="#624CAB"/>
<rect y="42" width="36" height="30" fill="#624CAB" fill-opacity="0.56"/>
</svg>
